<svg width="633" height="521" viewBox="0 0 633 521" fill="none" xmlns="http://www.w3.org/2000/svg">
<g filter="url(#filter0_d_78_62)">
<path d="M432.893 161.14C475.975 191.384 524.443 220.547 524.982 254.031C526.059 288.055 479.207 325.86 444.202 355.023C409.198 384.727 386.041 405.789 360.73 411.19C334.881 417.13 306.877 406.869 267.564 403.089C227.713 399.308 176.553 402.549 143.703 378.786C110.852 355.023 96.312 304.797 118.93 275.634C142.087 247.01 202.402 239.449 241.177 208.666C279.951 177.342 297.722 122.256 325.187 110.374C352.652 99.0331 389.811 130.357 432.893 161.14Z" fill="url(#paint0_linear_78_62)" shape-rendering="crispEdges"/>
</g>
<path d="M415.334 124.285C436.975 136.925 449.632 166.285 462.698 193.198C475.764 220.518 489.239 245.8 491.28 272.305C493.73 299.218 484.747 326.947 469.231 349.782C454.124 373.025 432.075 390.967 407.576 409.316C383.486 427.666 356.946 446.831 333.672 441.123C309.99 435.822 289.983 406.054 264.259 388.52C238.944 370.578 208.321 364.869 187.497 347.335C167.081 329.801 156.874 300.442 155.24 270.267C153.607 239.684 160.14 208.285 179.739 188.712C198.93 169.139 230.778 161.799 258.135 152.013C285.491 142.226 307.949 130.401 334.897 123.061C361.846 115.314 393.285 111.644 415.334 124.285Z" fill="url(#paint1_linear_78_62)"/>
<mask id="mask0_78_62" style="mask-type:alpha" maskUnits="userSpaceOnUse" x="155" y="116" width="338" height="327">
<path d="M415.655 124.392C437.295 137.033 449.953 166.392 463.019 193.305C476.085 220.626 489.559 245.908 491.6 272.413C494.05 299.326 485.067 327.054 469.552 349.889C454.444 373.132 432.395 391.074 407.897 409.424C383.806 427.773 357.266 446.939 333.992 441.23C310.31 435.929 290.303 406.161 264.58 388.627C239.264 370.685 208.641 364.977 187.817 347.442C167.402 329.908 157.194 300.549 155.561 270.374C153.927 239.791 160.46 208.393 180.059 188.82C199.25 169.247 231.098 161.907 258.455 152.12C285.812 142.334 308.269 130.508 335.217 123.168C362.166 115.421 393.606 111.751 415.655 124.392Z" fill="url(#paint2_linear_78_62)"/>
</mask>
<g mask="url(#mask0_78_62)">
<path d="M475.315 322.298V278.003H474.175V237.171H472.674V205.333C472.7 205.007 472.658 204.679 472.551 204.37C472.444 204.061 472.274 203.778 472.052 203.538C471.83 203.298 471.56 203.106 471.261 202.975C470.961 202.844 470.637 202.776 470.31 202.776C469.982 202.776 469.659 202.844 469.359 202.975C469.059 203.106 468.789 203.298 468.567 203.538C468.345 203.778 468.175 204.061 468.068 204.37C467.961 204.679 467.92 205.007 467.946 205.333V209.095H451.435V205.333C451.459 204.679 451.223 204.043 450.779 203.562C450.334 203.082 449.718 202.797 449.063 202.77C448.934 202.755 448.803 202.755 448.673 202.77C448.143 202.867 447.664 203.148 447.322 203.564C446.918 204.047 446.699 204.658 446.707 205.288V237.126H445.206V278.003H444.08V322.298H442.909V366.577H455.247V322.298H454.077V288.451H465.349V322.298H464.193V366.577H476.516V322.298H475.315ZM467.946 215.286V237.171H466.445V243.167H452.936V237.171H451.435V215.286H467.946ZM454.031 282.26V278.003H452.891V249.373H466.4V278.003H465.259V282.26H454.031Z" fill="#BE3A1D"/>
<path d="M244.825 322.297V278.003H243.699V237.171H242.198V205.333C242.206 204.703 241.987 204.092 241.583 203.609C241.241 203.193 240.762 202.912 240.232 202.815C240.102 202.8 239.971 202.8 239.842 202.815C239.187 202.842 238.571 203.127 238.126 203.607C237.682 204.088 237.446 204.724 237.47 205.378V209.14H220.809V205.378C220.835 205.052 220.794 204.724 220.687 204.415C220.58 204.106 220.41 203.823 220.188 203.583C219.965 203.343 219.696 203.151 219.396 203.02C219.096 202.889 218.773 202.821 218.445 202.821C218.118 202.821 217.794 202.889 217.494 203.02C217.194 203.151 216.925 203.343 216.703 203.583C216.481 203.823 216.311 204.106 216.204 204.415C216.097 204.724 216.055 205.052 216.081 205.378V237.216H214.58V278.003H213.439V322.297H212.284V366.577H224.607V322.297H223.436V288.451H234.723V322.297H233.553V366.577H245.891V322.297H244.825ZM220.809 215.286H237.32V237.171H235.819V243.167H222.31V237.171H220.809V215.286ZM223.436 282.26V278.003H222.31V249.373H235.819V278.003H234.678V282.26H223.436Z" fill="#BE3A1D"/>
<path d="M451.795 209.095C450.439 215.121 448.73 221.062 446.676 226.888C442.559 238.676 436.966 249.897 430.031 260.285C429.025 261.784 427.989 263.283 426.924 264.782C421.668 271.984 415.66 278.606 409.002 284.538C407.996 285.438 406.945 286.337 405.895 287.206C400.35 291.801 394.35 295.819 387.988 299.198C386.967 299.753 385.917 300.277 384.881 300.787C379.149 303.578 373.15 305.783 366.974 307.368C365.939 307.637 364.903 307.892 363.852 308.117C357.974 309.415 351.98 310.118 345.96 310.216H342.838C336.819 310.111 330.826 309.408 324.947 308.117C323.896 307.892 322.86 307.637 321.825 307.368C315.649 305.783 309.649 303.578 303.918 300.787C302.882 300.277 301.831 299.753 300.811 299.198C294.449 295.819 288.449 291.801 282.904 287.206C281.853 286.337 280.818 285.438 279.797 284.538C273.131 278.608 267.123 271.98 261.875 264.767C260.81 263.268 259.774 261.844 258.768 260.27C251.836 249.886 246.243 238.67 242.122 226.888C240.068 221.052 238.359 215.101 237.004 209.065H237.394V205.303C237.37 204.649 237.606 204.012 238.05 203.532C238.495 203.052 239.111 202.767 239.766 202.739C239.895 202.725 240.026 202.725 240.156 202.739V206.307H239.766C241.106 212.213 242.795 218.034 244.824 223.74C248.841 235.221 254.293 246.15 261.05 256.268C262.04 257.767 263.046 259.176 264.052 260.585C269.158 267.61 275.005 274.068 281.493 279.846C282.499 280.731 283.504 281.6 284.495 282.44C289.867 286.917 295.687 290.83 301.861 294.117C302.867 294.656 303.888 295.166 304.863 295.616C310.448 298.331 316.291 300.48 322.305 302.031C323.326 302.286 324.331 302.541 325.307 302.766C331.083 304.033 336.971 304.726 342.883 304.834H345.885C351.777 304.743 357.645 304.066 363.402 302.811C364.423 302.586 365.428 302.331 366.404 302.076C372.418 300.525 378.261 298.376 383.845 295.661C384.851 295.166 385.872 294.656 386.847 294.162C393.043 290.878 398.883 286.965 404.274 282.485C405.309 281.645 406.33 280.776 407.276 279.891C413.756 274.111 419.602 267.659 424.717 260.645C425.753 259.236 426.758 257.797 427.719 256.328C434.479 246.206 439.931 235.272 443.945 223.785C445.945 218.102 447.609 212.306 448.928 206.427H448.538V202.859C448.667 202.845 448.798 202.845 448.928 202.859C449.582 202.887 450.199 203.172 450.644 203.652C451.088 204.132 451.324 204.769 451.299 205.423V209.185L451.795 209.095Z" fill="#BE3A1D"/>
<path d="M261.875 329.807V260.735C260.809 259.086 259.759 257.392 258.768 255.683V329.807H261.875Z" fill="#BE3A1D"/>
<path d="M282.904 329.807V285.543C281.854 284.598 280.818 283.639 279.797 282.65V329.807H282.904Z" fill="#BE3A1D"/>
<path d="M303.919 329.807V300.142C302.868 299.603 301.832 299.033 300.812 298.449V329.807H303.919Z" fill="#BE3A1D"/>
<path d="M324.947 329.807V307.937C323.897 307.697 322.861 307.442 321.825 307.158V329.807H324.947Z" fill="#BE3A1D"/>
<path d="M345.961 329.807V310.171H342.839V329.807H345.961Z" fill="#BE3A1D"/>
<path d="M366.975 329.807V307.158C365.939 307.442 364.903 307.697 363.853 307.937V329.807H366.975Z" fill="#BE3A1D"/>
<path d="M387.988 329.807V298.449C386.968 299.033 385.932 299.603 384.881 300.142V329.807H387.988Z" fill="#BE3A1D"/>
<path d="M409.002 329.807V282.65C407.981 283.639 406.946 284.598 405.895 285.543V329.807H409.002Z" fill="#BE3A1D"/>
<path d="M430.031 329.807V255.683C429.04 257.392 427.99 259.086 426.924 260.735V329.807H430.031Z" fill="#BE3A1D"/>
<path d="M216.591 211.074C215.465 215.391 214.189 219.633 212.733 223.74C208.719 235.227 203.267 246.161 196.508 256.283C195.517 257.782 194.511 259.191 193.506 260.6C188.391 267.614 182.544 274.066 176.064 279.847C175.074 280.731 174.053 281.6 173.062 282.44C167.671 286.92 161.831 290.834 155.636 294.117C154.63 294.656 153.609 295.166 152.634 295.616C149.42 297.165 146.122 298.536 142.757 299.723V305.164C146.484 303.892 150.129 302.39 153.669 300.667C154.705 300.158 155.756 299.633 156.777 299.078C163.138 295.7 169.138 291.681 174.683 287.087C175.734 286.217 176.785 285.318 177.79 284.418C184.449 278.486 190.457 271.864 195.712 264.662C196.778 263.163 197.813 261.739 198.819 260.165C205.709 249.81 211.266 238.629 215.36 226.888C217.181 221.689 218.734 216.401 220.013 211.044L216.591 211.074Z" fill="#BE3A1D"/>
<path d="M156.671 329.807V298.449C155.651 299.033 154.615 299.603 153.564 300.142V329.807H156.671Z" fill="#BE3A1D"/>
<path d="M177.685 329.807V282.65C176.664 283.639 175.629 284.598 174.578 285.543V329.807H177.685Z" fill="#BE3A1D"/>
<path d="M198.714 329.807V255.683C197.723 257.392 196.673 259.086 195.607 260.735V329.807H198.714Z" fill="#BE3A1D"/>
<path d="M472.643 211.074C473.754 215.391 475.045 219.633 476.5 223.74C480.516 235.224 485.962 246.157 492.711 256.283C493.717 257.782 494.722 259.191 495.713 260.6C500.824 267.618 506.671 274.07 513.155 279.846C514.13 280.731 515.166 281.6 516.156 282.44C521.545 286.924 527.385 290.837 533.583 294.117C534.574 294.656 535.609 295.166 536.585 295.616C539.797 297.17 543.094 298.541 546.461 299.723V305.164C542.732 303.897 539.088 302.395 535.549 300.667C534.514 300.158 533.463 299.633 532.427 299.078C526.07 295.699 520.075 291.681 514.535 287.087C513.485 286.217 512.434 285.318 511.428 284.418C504.766 278.49 498.758 271.867 493.507 264.662C492.441 263.163 491.405 261.739 490.4 260.165C483.509 249.812 477.957 238.631 473.874 226.888C472.039 221.694 470.486 216.405 469.221 211.044L472.643 211.074Z" fill="#BE3A1D"/>
<path d="M490.52 329.807V255.683C491.511 257.392 492.546 259.086 493.627 260.735V329.807H490.52Z" fill="#BE3A1D"/>
<path d="M544.061 326.03H144.739V336.418H544.061V326.03Z" fill="#BE3A1D"/>
<path opacity="0.1" d="M544.061 331.231H144.739V336.433H544.061V331.231Z" fill="black"/>
</g>
<mask id="mask1_78_62" style="mask-type:alpha" maskUnits="userSpaceOnUse" x="155" y="116" width="337" height="327">
<path d="M415.334 124.285C436.975 136.925 449.632 166.285 462.698 193.198C475.764 220.518 489.239 245.8 491.28 272.305C493.73 299.218 484.747 326.947 469.231 349.782C454.124 373.025 432.075 390.967 407.576 409.316C383.486 427.666 356.946 446.831 333.672 441.123C309.99 435.822 289.983 406.054 264.259 388.52C238.944 370.578 208.321 364.869 187.497 347.335C167.081 329.801 156.874 300.442 155.24 270.267C153.607 239.684 160.14 208.285 179.739 188.712C198.93 169.139 230.778 161.799 258.135 152.013C285.491 142.226 307.949 130.401 334.897 123.061C361.846 115.314 393.285 111.644 415.334 124.285Z" fill="url(#paint3_linear_78_62)"/>
</mask>
<g mask="url(#mask1_78_62)">
<path d="M491.68 365.192C467.885 411.87 433.139 430.436 395.777 437.895C348.65 447.28 301.206 439.731 254.312 428.827C219.627 420.598 189.024 406.995 161.122 365.192H491.68Z" fill="#7F81A2"/>
</g>
<mask id="mask2_78_62" style="mask-type:alpha" maskUnits="userSpaceOnUse" x="155" y="116" width="337" height="327">
<path d="M415.334 124.285C436.975 136.925 449.632 166.285 462.698 193.198C475.764 220.518 489.239 245.8 491.28 272.305C493.73 299.218 484.747 326.947 469.231 349.782C454.124 373.025 432.075 390.967 407.576 409.316C383.486 427.666 356.946 446.831 333.672 441.123C309.99 435.822 289.983 406.054 264.259 388.52C238.944 370.578 208.321 364.869 187.497 347.335C167.081 329.801 156.874 300.442 155.24 270.267C153.607 239.684 160.14 208.285 179.739 188.712C198.93 169.139 230.778 161.799 258.135 152.013C285.491 142.226 307.949 130.401 334.897 123.061C361.846 115.314 393.285 111.644 415.334 124.285Z" fill="url(#paint4_linear_78_62)"/>
</mask>
<g mask="url(#mask2_78_62)">
<path d="M484.813 338.155H465.97V383.572H484.813V338.155Z" fill="#24285B"/>
<path d="M501.374 319.995C500.922 332.824 499.208 345.577 496.257 358.071C495.443 361.486 494.56 364.779 493.607 367.95C492.813 370.547 491.946 373.06 491.043 375.499H484.814V321.995C484.814 320.891 485.71 319.995 486.814 319.995H501.374Z" fill="#24285B"/>
<path d="M191.556 328.111V383.969H178.782C178.075 379.821 177.577 375.641 177.292 371.443C176.803 365.138 176.608 358.955 176.266 353.601C175.716 345.114 175.667 336.603 176.12 328.111H191.556Z" fill="#24285B"/>
<path d="M208.823 335.819H191.555V383.981H208.823V335.819Z" fill="#24285B"/>
<path d="M226.092 323.66H208.824V383.969H226.092V323.66Z" fill="#24285B"/>
<path d="M237.987 361.991H222.624V395.189H237.987V361.991Z" fill="#24285B"/>
<rect x="436.587" y="299.229" width="39.1773" height="98.9438" fill="#24285B"/>
<path d="M407.205 335.66C407.205 329.032 412.577 323.66 419.205 323.66H446.382V422.603H407.205V335.66Z" fill="#24285B"/>
<rect x="163.57" y="304.115" width="39.1773" height="98.9438" rx="16" fill="#24285B"/>
</g>
<path opacity="0.17" d="M291.986 228.166C308.14 228.166 321.235 215.088 321.235 198.957C321.235 182.825 308.14 169.747 291.986 169.747C275.833 169.747 262.738 182.825 262.738 198.957C262.738 215.088 275.833 228.166 291.986 228.166Z" fill="#FFD200"/>
<path d="M291.986 218.08C302.562 218.08 311.135 209.518 311.135 198.957C311.135 188.395 302.562 179.833 291.986 179.833C281.411 179.833 272.837 188.395 272.837 198.957C272.837 209.518 281.411 218.08 291.986 218.08Z" fill="#FFD200"/>
<path opacity="0.3" d="M360.926 196.177C359.681 196.182 358.446 196.395 357.274 196.806C357.851 195.051 358.144 193.219 358.142 191.376C358.142 186.611 356.201 182.042 352.747 178.673C349.292 175.304 344.607 173.412 339.722 173.412C334.837 173.412 330.152 175.304 326.697 178.673C323.243 182.042 321.302 186.611 321.302 191.376C321.302 191.848 321.302 192.32 321.302 192.792C319.43 191.855 317.355 191.37 315.25 191.376C311.713 191.376 308.321 192.746 305.82 195.185C303.32 197.624 301.915 200.932 301.915 204.381C301.915 207.831 303.32 211.139 305.82 213.578C308.321 216.017 311.713 217.387 315.25 217.387H360.825C363.709 217.387 366.475 216.27 368.514 214.281C370.553 212.292 371.699 209.594 371.699 206.782C371.699 203.969 370.553 201.272 368.514 199.283C366.475 197.294 363.709 196.177 360.825 196.177H360.926Z" fill="#FFFEFC"/>
<path opacity="0.3" d="M282.543 218.061C281.79 218.064 281.042 218.196 280.333 218.451C280.682 217.363 280.859 216.227 280.858 215.085C280.858 212.132 279.683 209.299 277.592 207.211C275.501 205.123 272.665 203.95 269.708 203.95C266.751 203.95 263.915 205.123 261.824 207.211C259.733 209.299 258.558 212.132 258.558 215.085C258.558 215.378 258.558 215.67 258.558 215.963C257.425 215.382 256.169 215.081 254.895 215.085C252.754 215.085 250.7 215.934 249.187 217.446C247.673 218.958 246.822 221.008 246.822 223.146C246.822 225.284 247.673 227.335 249.187 228.847C250.7 230.359 252.754 231.208 254.895 231.208H282.482C284.228 231.208 285.902 230.515 287.137 229.282C288.371 228.05 289.065 226.378 289.065 224.634C289.065 222.891 288.371 221.219 287.137 219.986C285.902 218.753 284.228 218.061 282.482 218.061H282.543Z" fill="#FFFEFC"/>
<path opacity="0.3" d="M343.524 263.561C342.956 263.564 342.393 263.664 341.858 263.858C342.121 263.03 342.255 262.164 342.254 261.294C342.254 259.044 341.369 256.887 339.793 255.296C338.217 253.705 336.08 252.811 333.852 252.811C331.624 252.811 329.487 253.705 327.911 255.296C326.335 256.887 325.45 259.044 325.45 261.294C325.45 261.517 325.45 261.74 325.45 261.963C324.596 261.521 323.649 261.291 322.689 261.294C321.076 261.294 319.529 261.941 318.388 263.093C317.247 264.245 316.606 265.807 316.606 267.436C316.606 269.064 317.247 270.627 318.388 271.778C319.529 272.93 321.076 273.577 322.689 273.577H343.478C344.793 273.577 346.055 273.049 346.985 272.11C347.915 271.171 348.438 269.897 348.438 268.569C348.438 267.241 347.915 265.967 346.985 265.028C346.055 264.089 344.793 263.561 343.478 263.561H343.524Z" fill="#FFFEFC"/>
<path opacity="0.3" d="M448.813 189.048C448.245 189.051 447.682 189.151 447.147 189.345C447.411 188.516 447.544 187.651 447.543 186.781C447.543 184.531 446.658 182.373 445.082 180.783C443.506 179.192 441.369 178.298 439.141 178.298C436.913 178.298 434.776 179.192 433.2 180.783C431.624 182.373 430.739 184.531 430.739 186.781C430.739 187.004 430.739 187.227 430.739 187.45C429.885 187.007 428.938 186.778 427.978 186.781C426.365 186.781 424.818 187.428 423.677 188.58C422.536 189.731 421.896 191.294 421.896 192.922C421.896 194.551 422.536 196.113 423.677 197.265C424.818 198.417 426.365 199.064 427.978 199.064H448.767C450.082 199.064 451.344 198.536 452.274 197.597C453.204 196.658 453.727 195.384 453.727 194.056C453.727 192.728 453.204 191.454 452.274 190.515C451.344 189.576 450.082 189.048 448.767 189.048H448.813Z" fill="#FFFEFC"/>
<defs>
<filter id="filter0_d_78_62" x="0" y="0" width="633" height="521" filterUnits="userSpaceOnUse" color-interpolation-filters="sRGB">
<feFlood flood-opacity="0" result="BackgroundImageFix"/>
<feColorMatrix in="SourceAlpha" type="matrix" values="0 0 0 0 0 0 0 0 0 0 0 0 0 0 0 0 0 0 127 0" result="hardAlpha"/>
<feOffset/>
<feGaussianBlur stdDeviation="54"/>
<feComposite in2="hardAlpha" operator="out"/>
<feColorMatrix type="matrix" values="0 0 0 0 0.945833 0 0 0 0 0.589185 0 0 0 0 0.130052 0 0 0 0.65 0"/>
<feBlend mode="normal" in2="BackgroundImageFix" result="effect1_dropShadow_78_62"/>
<feBlend mode="normal" in="SourceGraphic" in2="effect1_dropShadow_78_62" result="shape"/>
</filter>
<linearGradient id="paint0_linear_78_62" x1="108" y1="413" x2="398.666" y2="15.5975" gradientUnits="userSpaceOnUse">
<stop stop-color="#F87537" stop-opacity="0.72"/>
<stop offset="1" stop-color="#FBA81F"/>
</linearGradient>
<linearGradient id="paint1_linear_78_62" x1="155" y1="442.148" x2="480.983" y2="105.638" gradientUnits="userSpaceOnUse">
<stop stop-color="#7F81A1"/>
<stop offset="1" stop-color="#DAEDFF"/>
</linearGradient>
<linearGradient id="paint2_linear_78_62" x1="155.32" y1="442.255" x2="481.304" y2="105.745" gradientUnits="userSpaceOnUse">
<stop stop-color="#F87537"/>
<stop offset="1" stop-color="#FBA81F"/>
</linearGradient>
<linearGradient id="paint3_linear_78_62" x1="155" y1="442.148" x2="480.983" y2="105.638" gradientUnits="userSpaceOnUse">
<stop stop-color="#F87537"/>
<stop offset="1" stop-color="#FBA81F"/>
</linearGradient>
<linearGradient id="paint4_linear_78_62" x1="155" y1="442.148" x2="480.983" y2="105.638" gradientUnits="userSpaceOnUse">
<stop stop-color="#F87537"/>
<stop offset="1" stop-color="#FBA81F"/>
</linearGradient>
</defs>
</svg>
