<svg width="306" height="183" viewBox="0 0 306 183" fill="none" xmlns="http://www.w3.org/2000/svg">
<path d="M82.0499 31.3118L129.68 2.43536V124.551C129.622 136.148 126.696 146.354 120.902 155.167C115.165 163.923 107.227 170.765 97.0865 175.694C87.0042 180.565 75.3863 183 62.233 183C50.818 183 40.388 181.029 30.9431 177.086C21.4982 173.085 13.9654 166.822 8.34486 158.298C2.72427 149.717 -0.0570573 138.584 0.0008869 124.899H48.3264C48.5002 129.364 49.2535 133.133 50.5862 136.206C51.9769 139.279 53.889 141.599 56.3227 143.164C58.8143 144.672 61.8274 145.426 65.362 145.426C68.9545 145.426 71.9676 144.643 74.4013 143.077C76.8929 141.512 78.7761 139.192 80.0509 136.119C81.3256 132.988 81.992 129.132 82.0499 124.551V31.3118Z" fill="#D16464" fill-opacity="0.1"/>
<path d="M255.067 61.2319C254.314 58.1587 253.126 55.4625 251.503 53.1431C249.881 50.7657 247.853 48.7652 245.419 47.1416C243.044 45.4601 240.262 44.2134 237.075 43.4016C233.946 42.5318 230.499 42.097 226.732 42.097C218.62 42.097 211.696 44.0394 205.959 47.9244C200.281 51.8094 195.935 57.4049 192.922 64.711C189.967 72.0171 188.489 80.8308 188.489 91.1521C188.489 101.589 189.909 110.519 192.748 117.941C195.587 125.363 199.817 131.046 205.438 134.989C211.058 138.932 218.041 140.903 226.385 140.903C233.744 140.903 239.857 139.83 244.724 137.685C249.649 135.539 253.329 132.495 255.762 128.552C258.196 124.609 259.402 120.84 259.402 115.506L227.08 81.0627H306V105.764C306 122 302.552 135.887 295.657 147.426C288.82 158.907 279.375 167.721 267.322 173.867C255.328 179.956 241.566 183 226.037 183C208.712 183 193.501 179.318 180.406 171.954C167.31 164.59 157.083 154.095 149.724 140.468C142.423 126.842 138.773 110.635 138.773 91.8479C138.773 77.1198 141.004 64.0732 145.466 52.7082C149.985 41.3432 156.243 31.7467 164.239 23.9187C172.236 16.0328 181.478 10.0894 191.966 6.0884C202.454 2.02947 213.695 0 225.689 0C236.235 0 246.028 1.50761 255.067 4.52282C264.164 7.48004 272.19 11.7129 279.143 17.2215C286.154 22.6721 291.804 29.1374 296.092 36.6174C300.379 44.0974 302.987 52.3023 303.914 61.2319H255.067Z" fill="#D16464" fill-opacity="0.1"/>
</svg>
