<svg width="160" height="160" viewBox="0 0 160 160" fill="none" xmlns="http://www.w3.org/2000/svg">
<path d="M42.9019 48.4259L67.8066 33.2776V97.3384C67.7763 103.422 66.2463 108.776 63.2165 113.399C60.217 117.992 56.0663 121.582 50.7642 124.167C45.4924 126.722 39.4177 128 32.5401 128C26.5715 128 21.1179 126.966 16.1794 124.897C11.2409 122.798 7.3022 119.513 4.36332 115.042C1.42445 110.54 -0.0298339 104.7 0.000463738 97.5209H25.2687C25.3596 99.8631 25.7535 101.84 26.4503 103.452C27.1774 105.065 28.1773 106.281 29.4498 107.103C30.7526 107.894 32.328 108.289 34.1762 108.289C36.0547 108.289 37.6301 107.878 38.9026 107.057C40.2054 106.236 41.1901 105.019 41.8567 103.407C42.5232 101.764 42.8716 99.7414 42.9019 97.3384V48.4259Z" fill="#211F1F"/>
<path d="M133.368 64.1217C132.975 62.5095 132.353 61.0951 131.505 59.8783C130.657 58.6312 129.596 57.5818 128.324 56.73C127.082 55.8479 125.627 55.1939 123.961 54.7681C122.325 54.3118 120.522 54.0836 118.553 54.0836C114.311 54.0836 110.691 55.1027 107.691 57.1407C104.722 59.1787 102.45 62.1141 100.874 65.9468C99.329 69.7795 98.5564 74.403 98.5564 79.8175C98.5564 85.2928 99.2987 89.9772 100.783 93.8707C102.268 97.7643 104.48 100.745 107.418 102.814C110.357 104.882 114.008 105.916 118.371 105.916C122.219 105.916 125.415 105.354 127.96 104.228C130.536 103.103 132.459 101.506 133.732 99.4373C135.004 97.3688 135.635 95.3916 135.635 92.5932L118.735 74.5247H160V87.4829C160 96 158.197 103.285 154.592 109.338C151.017 115.361 146.078 119.985 139.776 123.209C133.505 126.403 126.309 128 118.189 128C109.13 128 101.177 126.068 94.3299 122.205C87.4826 118.342 82.1351 112.837 78.2873 105.688C74.4698 98.5399 72.561 90.038 72.561 80.1825C72.561 72.4563 73.7275 65.6122 76.0604 59.6502C78.4236 53.6882 81.6957 48.654 85.8768 44.5475C90.0579 40.4106 94.8904 37.2928 100.374 35.1939C105.858 33.0646 111.736 32 118.007 32C123.522 32 128.642 32.7909 133.368 34.3726C138.125 35.924 142.321 38.1445 145.957 41.0342C149.623 43.8935 152.577 47.2852 154.819 51.2091C157.061 55.1331 158.425 59.4373 158.909 64.1217H133.368Z" fill="#211F1F"/>
</svg>
