<svg width="64" height="64" viewBox="0 0 64 64" fill="none" xmlns="http://www.w3.org/2000/svg">
<path fill-rule="evenodd" clip-rule="evenodd" d="M32.0002 2.55151C15.3267 2.55151 1.80615 16.069 1.80615 32.7455C1.80615 46.0865 10.4577 57.404 22.4547 61.397C23.9632 61.677 24.5172 60.742 24.5172 59.9445C24.5172 59.2245 24.4892 56.846 24.4762 54.323C16.0762 56.1495 14.3037 50.7605 14.3037 50.7605C12.9302 47.2705 10.9512 46.3425 10.9512 46.3425C8.21115 44.4685 11.1577 44.5075 11.1577 44.5075C14.1892 44.72 15.7862 47.619 15.7862 47.619C18.4792 52.234 22.8497 50.9 24.5727 50.129C24.8437 48.1775 25.6262 46.845 26.4897 46.091C19.7832 45.3285 12.7327 42.739 12.7327 31.1695C12.7327 27.873 13.9127 25.1795 15.8442 23.0645C15.5302 22.3045 14.4967 19.2335 16.1362 15.0745C16.1362 15.0745 18.6712 14.263 24.4412 18.1695C26.8502 17.5 29.4337 17.1635 32.0002 17.152C34.5652 17.1635 37.1502 17.499 39.5637 18.1685C45.3267 14.262 47.8587 15.0735 47.8587 15.0735C49.5022 19.232 48.4687 22.3035 48.1552 23.0635C50.0912 25.1785 51.2627 27.872 51.2627 31.1685C51.2627 42.7655 44.1992 45.3185 37.4757 46.0665C38.5592 47.0035 39.5242 48.8415 39.5242 51.658C39.5242 55.698 39.4892 58.9495 39.4892 59.944C39.4892 60.7475 40.0332 61.689 41.5632 61.3925C53.5532 57.3955 62.1947 46.0815 62.1947 32.7455C62.1942 16.07 48.6752 2.55201 32.0002 2.55201V2.55151Z" fill="#181616"/>
<path d="M13.2423 45.903C13.1758 46.053 12.9398 46.098 12.7248 45.9955C12.5048 45.8975 12.3823 45.693 12.4533 45.5425C12.5183 45.3875 12.7548 45.345 12.9733 45.4485C13.1933 45.547 13.3183 45.7535 13.2418 45.9035L13.2423 45.903ZM14.4653 47.2675C14.3218 47.401 14.0403 47.339 13.8493 47.1275C13.6513 46.9175 13.6143 46.636 13.7608 46.5005C13.9098 46.3675 14.1828 46.4305 14.3808 46.6405C14.5778 46.8535 14.6168 47.1325 14.4658 47.268L14.4653 47.2675ZM15.6563 49.006C15.4713 49.135 15.1683 49.0145 14.9813 48.746C14.7963 48.477 14.7963 48.1545 14.9863 48.026C15.1728 47.897 15.4713 48.0135 15.6613 48.2795C15.8453 48.552 15.8453 48.8745 15.6563 49.0055V49.006ZM17.2868 50.6865C17.1218 50.869 16.7688 50.82 16.5108 50.5715C16.2473 50.328 16.1738 49.9815 16.3393 49.7995C16.5073 49.6165 16.8618 49.6675 17.1213 49.9145C17.3848 50.1575 17.4643 50.5045 17.2878 50.686L17.2868 50.6865ZM19.5368 51.662C19.4633 51.8985 19.1243 52.006 18.7818 51.905C18.4403 51.8015 18.2168 51.525 18.2868 51.286C18.3568 51.0475 18.6983 50.936 19.0428 51.0435C19.3843 51.1465 19.6078 51.4215 19.5368 51.662ZM22.0083 51.8425C22.0168 52.0915 21.7268 52.2975 21.3683 52.3025C21.0068 52.311 20.7143 52.109 20.7108 51.864C20.7108 51.6125 20.9948 51.409 21.3558 51.402C21.7143 51.3955 22.0088 51.5955 22.0088 51.842L22.0083 51.8425ZM24.3073 51.4515C24.3503 51.694 24.1008 51.9435 23.7443 52.01C23.3943 52.075 23.0693 51.924 23.0243 51.6835C22.9813 51.4345 23.2353 51.185 23.5853 51.1205C23.9423 51.059 24.2623 51.2055 24.3073 51.452V51.4515Z" fill="#181616"/>
</svg>
