<svg width="64" height="64" viewBox="0 0 64 64" fill="none" xmlns="http://www.w3.org/2000/svg">
<path d="M9.19502 48.426L6.89502 47.0975L32.52 2.71704L34.8185 4.04504L9.19502 48.426Z" fill="#E434AA"/>
<path d="M6.3667 43.5525H57.6147V46.2075H6.3667V43.5525Z" fill="#E434AA"/>
<path d="M33.0153 59.844L7.38281 45.045L8.71081 42.744L34.3438 57.545L33.0153 59.844ZM55.2828 21.2715L29.6503 6.4705L30.9783 4.172L56.6113 18.9705L55.2828 21.2715Z" fill="#E434AA"/>
<path d="M8.71668 21.2615L7.38818 18.961L33.0232 4.16199L34.3512 6.46099L8.71668 21.2615Z" fill="#E434AA"/>
<path d="M54.8104 48.426L29.1874 4.04504L31.4864 2.71704L57.1114 47.0975L54.8104 48.426ZM8.3999 17.199H11.0564V46.801H8.4004L8.3999 17.199Z" fill="#E434AA"/>
<path d="M52.9434 17.199H55.5994V46.801H52.9434V17.199Z" fill="#E434AA"/>
<path d="M32.5643 58.7205L31.4043 56.7105L53.6973 43.838L54.8573 45.848L32.5643 58.7205Z" fill="#E434AA"/>
<path d="M59.1189 47.664C57.5839 50.336 54.1599 51.248 51.4884 49.713C48.8164 48.176 47.9044 44.752 49.4394 42.08C50.9764 39.408 54.4004 38.496 57.0724 40.0315C59.7599 41.584 60.6719 44.992 59.1189 47.664ZM14.5449 21.92C13.0079 24.592 9.58393 25.504 6.91193 23.9685C4.23993 22.4315 3.32793 19.008 4.86343 16.336C6.40043 13.664 9.82393 12.752 12.4959 14.287C15.1679 15.84 16.0799 19.248 14.5449 21.92ZM4.88093 47.664C3.34343 44.992 4.25593 41.584 6.92743 40.031C9.59943 38.496 13.0074 39.408 14.5604 42.08C16.0954 44.752 15.1834 48.16 12.5114 49.713C9.82393 51.248 6.41593 50.336 4.88093 47.664ZM49.4549 21.92C47.9199 19.248 48.8319 15.84 51.5039 14.287C54.1759 12.752 57.5839 13.664 59.1364 16.336C60.6714 19.008 59.7599 22.416 57.0879 23.969C54.4159 25.504 50.9919 24.592 49.4549 21.92ZM31.9999 63.328C31.2664 63.3287 30.54 63.1847 29.8622 62.9043C29.1845 62.6239 28.5686 62.2126 28.05 61.694C27.5313 61.1753 27.12 60.5595 26.8396 59.8817C26.5593 59.2039 26.4153 58.4775 26.4159 57.744C26.4153 57.0105 26.5593 56.2841 26.8396 55.6063C27.12 54.9285 27.5313 54.3127 28.05 53.794C28.5686 53.2754 29.1845 52.8641 29.8622 52.5837C30.54 52.3033 31.2664 52.1593 31.9999 52.16C32.7334 52.1593 33.4598 52.3033 34.1376 52.5837C34.8154 52.8641 35.4312 53.2754 35.9499 53.794C36.4685 54.3127 36.8798 54.9285 37.1602 55.6063C37.4406 56.2841 37.5846 57.0105 37.5839 57.744C37.5839 60.8165 35.0879 63.328 31.9999 63.328ZM31.9999 11.84C31.2664 11.8407 30.54 11.6967 29.8622 11.4163C29.1845 11.1359 28.5686 10.7246 28.05 10.2059C27.5313 9.6873 27.12 9.07146 26.8396 8.39368C26.5593 7.7159 26.4153 6.98949 26.4159 6.256C26.4153 5.52251 26.5593 4.7961 26.8396 4.11832C27.12 3.44054 27.5313 2.8247 28.05 2.30605C28.5686 1.7874 29.1845 1.37611 29.8622 1.09572C30.54 0.815327 31.2664 0.671342 31.9999 0.671999C32.7334 0.671342 33.4598 0.815327 34.1376 1.09572C34.8154 1.37611 35.4312 1.7874 35.9499 2.30605C36.4685 2.8247 36.8798 3.44054 37.1602 4.11832C37.4406 4.7961 37.5846 5.52251 37.5839 6.256C37.5846 6.98949 37.4406 7.7159 37.1602 8.39368C36.8798 9.07146 36.4685 9.6873 35.9499 10.2059C35.4312 10.7246 34.8154 11.1359 34.1376 11.4163C33.4598 11.6967 32.7334 11.8407 31.9999 11.84Z" fill="#E434AA"/>
</svg>
