<svg width="64" height="64" viewBox="0 0 64 64" fill="none" xmlns="http://www.w3.org/2000/svg">
<path d="M9.51861 56.9379L4.51611 0.830444H59.4841L54.4761 56.9294L31.9666 63.1694L9.51861 56.9379Z" fill="#E44D26"/>
<path d="M32 58.4L50.189 53.357L54.4685 5.41797H32V58.4Z" fill="#F16529"/>
<path d="M32.0001 26.2276H22.8941L22.2651 19.1806H32.0001V12.2996H14.7446L14.9096 14.1456L16.6006 33.1091H32.0001V26.2276ZM32.0001 44.0991L31.9696 44.1076L24.3061 42.0376L23.8166 36.5501H16.9081L17.8721 47.3546L31.9686 51.2676L32.0001 51.2591V44.0991Z" fill="#EBEBEB"/>
<path d="M31.9761 26.2276V33.1091H40.4496L39.6511 42.0336L31.9761 44.1051V51.2646L46.0836 47.3546L46.1871 46.1921L47.8041 28.0756L47.9716 26.2276H46.1176H31.9761ZM31.9761 12.2996V19.1806H48.5981L48.7361 17.6346L49.0501 14.1456L49.2146 12.2996H31.9761Z" fill="#FBFBFB"/>
</svg>
