<svg width="64" height="64" viewBox="0 0 64 64" fill="none" xmlns="http://www.w3.org/2000/svg">
<path d="M0.704102 0.703979H63.2961V63.2965H0.704102V0.703979Z" fill="#F0DB4F"/>
<path d="M58.1733 48.3681C57.7148 45.5126 55.8528 43.1141 50.3373 40.8776C48.4213 39.9971 46.2853 39.3666 45.6488 37.9146C45.4228 37.0696 45.3928 36.5936 45.5358 36.0821C45.9463 34.4221 47.9278 33.9046 49.4983 34.3806C50.5098 34.7196 51.4673 35.4991 52.0448 36.7426C54.7458 34.9936 54.7403 35.0051 56.6263 33.8031C55.9358 32.7326 55.5673 32.2386 55.1153 31.7806C53.4908 29.9661 51.2773 29.0316 47.7373 29.1031L45.8933 29.3416C44.1263 29.7881 42.4423 30.7156 41.4548 31.9591C38.4918 35.3211 39.3368 41.2051 42.9423 43.6266C46.4943 46.2926 51.7123 46.8991 52.3788 49.3921C53.0273 52.4441 50.1358 53.4321 47.2618 53.0811C45.1438 52.6406 43.9658 51.5641 42.6923 49.6066C40.3483 50.9631 40.3483 50.9631 37.9383 52.3491C38.5098 53.5986 39.1103 54.1641 40.0683 55.2466C44.6023 59.8456 55.9483 59.6196 57.9833 52.6586C58.0658 52.4196 58.6138 50.8256 58.1733 48.3681ZM34.7308 29.4716H28.8763L28.8523 44.6076C28.8523 47.8266 29.0188 50.7776 28.4953 51.6821C27.6388 53.4611 25.4193 53.2406 24.4078 52.8956C23.3783 52.3896 22.8548 51.6701 22.2483 50.6531C22.0818 50.3611 21.9568 50.1351 21.9148 50.1176L17.1548 53.0326C17.9463 54.6571 19.1123 56.0671 20.6058 56.9831C22.8368 58.3221 25.8353 58.7326 28.9713 58.0126C31.0123 57.4181 32.7733 56.1866 33.6953 54.3121C35.0283 51.8546 34.7423 48.8801 34.7303 45.5901C34.7603 40.2226 34.7308 34.8561 34.7308 29.4716Z" fill="#323330"/>
</svg>
