<svg width="64" height="64" viewBox="0 0 64 64" fill="none" xmlns="http://www.w3.org/2000/svg">
<path d="M32.0003 37.7001C35.1483 37.7001 37.7003 35.1481 37.7003 32C37.7003 28.852 35.1483 26.3 32.0003 26.3C28.8523 26.3 26.3003 28.852 26.3003 32C26.3003 35.1481 28.8523 37.7001 32.0003 37.7001Z" fill="#61DAFB"/>
<path d="M53.6502 22.6C52.5502 22.2 51.4002 21.8001 50.2002 21.4501C50.5002 20.25 50.7502 19.05 50.9502 17.9C52.0002 11.3 50.8502 6.65005 47.6502 4.85005C46.7002 4.30005 45.6502 4.05005 44.4502 4.05005C40.9502 4.05005 36.5002 6.65005 32.0002 11C27.5002 6.65005 23.0502 4.05005 19.5502 4.05005C18.3502 4.05005 17.3002 4.30005 16.3502 4.85005C13.1502 6.70005 12.0002 11.35 13.0502 17.9C13.2502 19.05 13.5002 20.25 13.8002 21.4501C12.6002 21.8001 11.4502 22.15 10.3502 22.6C4.1002 25 0.700195 28.3 0.700195 32C0.700195 35.7001 4.1502 39 10.3502 41.4001C11.4502 41.8001 12.6002 42.2001 13.8002 42.55C13.5002 43.75 13.2502 44.95 13.0502 46.1C12.0002 52.7 13.1502 57.3501 16.3502 59.1501C17.3002 59.7001 18.3502 59.9501 19.5502 59.9501C23.1002 59.9501 27.5502 57.35 32.0002 53C36.5002 57.35 40.9502 59.9501 44.4502 59.9501C45.6502 59.9501 46.7002 59.7001 47.6502 59.1501C50.8502 57.3001 52.0002 52.65 50.9502 46.1C50.7502 44.95 50.5002 43.75 50.2002 42.55C51.4002 42.2001 52.5502 41.8501 53.6502 41.4001C59.9002 39 63.3002 35.7001 63.3002 32C63.3002 28.3 59.9002 25 53.6502 22.6ZM46.2502 7.35005C48.3002 8.55005 49.0002 12.25 48.1502 17.5C48.0002 18.55 47.7502 19.65 47.4502 20.8C44.8502 20.2 42.1002 19.8 39.2002 19.55C37.5002 17.15 35.7502 15 34.0002 13.05C37.7002 9.40005 41.4502 6.90005 44.5002 6.90005C45.1502 6.90005 45.7502 7.05005 46.2502 7.35005ZM40.6502 37C39.7502 38.6 38.7002 40.2001 37.6002 41.8C35.7502 41.9501 33.9002 42 32.0002 42C30.0502 42 28.2002 41.9501 26.4002 41.8C25.3002 40.2001 24.3002 38.6 23.4002 37C22.4502 35.35 21.5502 33.65 20.7502 32C21.5502 30.35 22.4502 28.65 23.4002 27C24.3002 25.4 25.3502 23.8001 26.4502 22.2001C28.3002 22.0501 30.1502 22 32.0502 22C34.0002 22 35.8502 22.0501 37.6502 22.2001C38.7502 23.8001 39.7502 25.4 40.6502 27C41.6002 28.65 42.5002 30.35 43.3002 32C42.4502 33.65 41.6002 35.3 40.6502 37ZM44.8002 35.35C45.5502 37.1 46.1502 38.8 46.7002 40.5C45.0002 40.9001 43.2002 41.2001 41.3002 41.4501C41.9002 40.5 42.5502 39.5 43.1002 38.4501C43.7002 37.4001 44.2502 36.35 44.8002 35.35ZM32.0002 48.9001C30.8002 47.6001 29.6502 46.2001 28.5502 44.75C29.7002 44.8 30.8502 44.85 32.0002 44.85C33.1502 44.85 34.3002 44.8 35.4502 44.75C34.3502 46.2001 33.2002 47.6001 32.0002 48.9001ZM22.7002 41.4001C20.8002 41.1501 19.0002 40.8501 17.3002 40.4501C17.8502 38.8 18.4502 37.05 19.2002 35.3C19.7502 36.3 20.3002 37.35 20.9002 38.35C21.5002 39.45 22.1002 40.4001 22.7002 41.4001ZM19.2002 28.65C18.4502 26.9 17.8502 25.2001 17.3002 23.5C19.0002 23.1 20.8002 22.8 22.7002 22.55C22.1002 23.5 21.4502 24.5 20.9002 25.55C20.3002 26.6 19.7502 27.65 19.2002 28.65ZM32.0002 15.1C33.2002 16.4 34.3502 17.8 35.4502 19.25C34.3002 19.2 33.1502 19.15 32.0002 19.15C30.8502 19.15 29.7002 19.2 28.5502 19.25C29.6502 17.8 30.8002 16.4 32.0002 15.1ZM43.1002 25.6L41.3002 22.6C43.2002 22.85 45.0002 23.15 46.7002 23.55C46.1502 25.2 45.5502 26.9501 44.8002 28.7001C44.2502 27.6501 43.7002 26.6 43.1002 25.6ZM15.8502 17.5C15.0002 12.25 15.7002 8.55005 17.7502 7.35005C18.2502 7.05005 18.8502 6.90005 19.5002 6.90005C22.5002 6.90005 26.2502 9.35005 30.0002 13.05C28.2502 14.95 26.5002 17.15 24.8002 19.55C21.9002 19.8 19.1502 20.25 16.5502 20.8C16.2502 19.65 16.0502 18.55 15.8502 17.5ZM3.5002 32C3.5002 29.65 6.3502 27.15 11.3502 25.3C12.3502 24.9 13.4502 24.55 14.5502 24.25C15.3502 26.75 16.3502 29.4 17.5502 32.05C16.3502 34.7 15.3002 37.3 14.5502 39.8C7.6502 37.8 3.5002 34.8 3.5002 32ZM17.7502 56.6501C15.7002 55.4501 15.0002 51.75 15.8502 46.5C16.0002 45.4501 16.2502 44.3501 16.5502 43.2001C19.1502 43.8 21.9002 44.2001 24.8002 44.4501C26.5002 46.8501 28.2502 49 30.0002 50.9501C26.3002 54.6001 22.5502 57.1 19.5002 57.1C18.8502 57.1 18.2502 56.9501 17.7502 56.6501ZM48.1502 46.5C49.0002 51.75 48.3002 55.4501 46.2502 56.6501C45.7502 56.9501 45.1502 57.1 44.5002 57.1C41.5002 57.1 37.7502 54.6501 34.0002 50.9501C35.7502 49.05 37.5002 46.8501 39.2002 44.4501C42.1002 44.2001 44.8502 43.75 47.4502 43.2001C47.7502 44.3501 47.9502 45.4501 48.1502 46.5ZM52.6502 38.7001C51.6502 39.1001 50.5502 39.4501 49.4502 39.75C48.6502 37.25 47.6502 34.6 46.4502 31.9501C47.6502 29.3001 48.7002 26.7001 49.4502 24.2001C56.3502 26.2001 60.5002 29.2001 60.5002 32C60.5002 34.35 57.6002 36.8501 52.6502 38.7001Z" fill="#61DAFB"/>
</svg>
