<svg width="64" height="64" viewBox="0 0 64 64" fill="none" xmlns="http://www.w3.org/2000/svg">
<path d="M53.6732 1.00606L50.2162 1.22156L50.4857 8.41006C50.4997 8.80756 50.0412 9.03956 49.7287 8.79306L47.4137 6.96806L44.6712 9.04906C44.6006 9.10269 44.5162 9.1351 44.4278 9.14251C44.3395 9.14992 44.2508 9.13202 44.1723 9.0909C44.0937 9.04978 44.0285 8.98715 43.9842 8.91032C43.9399 8.83349 43.9184 8.74565 43.9222 8.65706L44.2307 1.59556L9.93674 3.74006C9.12096 3.79089 8.35738 4.15861 7.80901 4.76471C7.26064 5.37082 6.97093 6.16728 7.00174 6.98406L8.93174 58.4031C8.9612 59.1887 9.28505 59.9345 9.83896 60.4924C10.3929 61.0503 11.1363 61.3795 11.9217 61.4146L53.7277 63.2916C54.1503 63.3102 54.5724 63.2432 54.9684 63.0946C55.3644 62.9459 55.7263 62.7187 56.0322 62.4266C56.3383 62.1344 56.5818 61.7833 56.7482 61.3943C56.9146 61.0053 57.0003 60.5866 57.0002 60.1636V4.13206C57.0005 3.70422 56.9129 3.28089 56.7431 2.88822C56.5732 2.49554 56.3247 2.14187 56.0127 1.84906C55.7011 1.55608 55.3327 1.33012 54.9303 1.18512C54.528 1.04013 54.1001 0.979187 53.6732 1.00606ZM32.9432 11.5996C41.0972 11.5996 45.5502 15.9611 45.5502 24.2591C44.4482 25.1156 36.2402 25.6991 36.2402 24.4806C36.4132 19.8306 34.3317 19.6271 33.1752 19.6271C32.0762 19.6271 30.2257 19.9581 30.2257 22.4491C30.2257 28.5931 46.0707 28.2616 46.0707 40.6611C46.0707 47.6361 40.4032 51.4886 33.1752 51.4886C25.7152 51.4886 19.1967 48.4706 19.9327 38.0071C20.2217 36.7786 29.7052 37.0706 29.7052 38.0071C29.5902 42.3246 30.5727 43.5946 33.0587 43.5946C34.9672 43.5946 35.8352 42.5431 35.8352 40.7716C35.8352 34.4611 20.2217 34.2401 20.2217 22.6711C20.2217 16.0286 24.7907 11.5996 32.9437 11.5996H32.9432Z" fill="#FF4785"/>
</svg>
